<svg width="301" height="67" viewBox="0 0 301 67" fill="none" xmlns="http://www.w3.org/2000/svg">
<path d="M40.048 46.464C37.7867 47.232 35.4827 47.7867 33.136 48.128C30.832 48.4693 28.208 48.64 25.264 48.64C17.4987 48.64 11.376 46.6133 6.896 42.56C2.416 38.5067 0.176 33.0027 0.176 26.048C0.176 19.264 2.50133 13.7387 7.152 9.472C11.8453 5.16267 17.8613 3.008 25.2 3.008C27.632 3.008 30.1707 3.17867 32.816 3.52C35.504 3.86133 37.7867 4.30933 39.664 4.864C39.792 4.864 39.8987 4.928 39.984 5.056C40.0693 5.184 40.1333 5.35466 40.176 5.568C40.2187 6.03733 40.2613 6.63467 40.304 7.36C40.3467 8.08533 40.3893 9.344 40.432 11.136C40.5173 13.824 40.6027 15.8293 40.688 17.152C40.7733 18.4747 40.8587 19.6267 40.944 20.608C40.944 20.7787 40.8587 20.864 40.688 20.864C40.56 20.864 40.4747 20.7787 40.432 20.608C40.1333 18.2613 39.6 16.0853 38.832 14.08C38.1067 12.032 37.168 10.2827 36.016 8.832C34.6507 7.08266 33.0507 5.78133 31.216 4.928C29.424 4.032 27.44 3.584 25.264 3.584C20.3147 3.584 16.4533 5.568 13.68 9.536C10.9067 13.4613 9.52 18.9013 9.52 25.856C9.52 32.768 10.9067 38.208 13.68 42.176C16.4533 46.1013 20.3147 48.064 25.264 48.064C27.4827 48.064 29.488 47.616 31.28 46.72C33.1147 45.7813 34.7147 44.3947 36.08 42.56C37.232 41.024 38.192 39.2107 38.96 37.12C39.728 34.9867 40.2613 32.64 40.56 30.08C40.6027 29.952 40.688 29.888 40.816 29.888C40.944 29.888 41.008 29.952 41.008 30.08C40.9653 31.0187 40.9013 32.064 40.816 33.216C40.7733 34.368 40.7093 36.1173 40.624 38.464C40.5387 40.9387 40.4533 42.688 40.368 43.712C40.3253 44.736 40.2827 45.568 40.24 46.208C40.24 46.2933 40.2187 46.3573 40.176 46.4C40.1333 46.4427 40.0907 46.464 40.048 46.464ZM75.6025 43.648C73.9385 45.2693 72.0398 46.5067 69.9065 47.36C67.8158 48.2133 65.5972 48.64 63.2505 48.64C58.2585 48.64 54.2052 47.168 51.0905 44.224C47.9758 41.28 46.4185 37.4187 46.4185 32.64C46.4185 27.8187 48.1038 23.744 51.4745 20.416C54.8878 17.0453 59.1545 15.36 64.2745 15.36C69.2665 15.36 73.2985 16.8533 76.3705 19.84C79.4425 22.784 80.9785 26.688 80.9785 31.552C80.9785 33.728 80.5092 35.8827 79.5705 38.016C78.6318 40.1493 77.3092 42.0267 75.6025 43.648ZM55.5065 31.552C55.5065 36.3733 56.2958 40.32 57.8745 43.392C59.4532 46.4213 61.6078 47.936 64.3385 47.936C66.9838 47.936 68.9465 46.6773 70.2265 44.16C71.5065 41.6427 72.1465 37.7813 72.1465 32.576C72.1465 27.7973 71.3572 23.8507 69.7785 20.736C68.2425 17.5787 66.1518 16 63.5065 16C60.7332 16 58.7065 17.216 57.4265 19.648C56.1465 22.0373 55.5065 26.0053 55.5065 31.552ZM88.123 47.936C86.9283 47.9787 86.0537 48 85.499 48C84.9443 48 84.475 48 84.091 48C83.835 48 83.707 47.9147 83.707 47.744C83.707 47.5307 83.835 47.424 84.091 47.424C85.4137 47.424 86.2457 46.976 86.587 46.08C86.9283 45.184 87.099 43.2853 87.099 40.384V25.088C87.099 24.3627 86.8643 23.616 86.395 22.848C85.9257 22.0373 85.179 21.1627 84.155 20.224C84.0697 20.1387 84.027 20.0747 84.027 20.032C84.027 19.9467 84.0697 19.8827 84.155 19.84C84.9657 19.5413 86.3523 18.8587 88.315 17.792C90.3203 16.7253 91.579 15.9573 92.091 15.488C92.1763 15.4027 92.2403 15.3813 92.283 15.424C92.3257 15.424 92.3897 15.4667 92.475 15.552C93.1577 16.192 93.755 17.216 94.267 18.624C94.8217 19.9893 95.099 21.2907 95.099 22.528C96.9337 20.096 98.811 18.304 100.731 17.152C102.651 15.9573 104.678 15.36 106.811 15.36C110.182 15.36 112.72 16.448 114.427 18.624C116.134 20.7573 116.987 23.9787 116.987 28.288V41.728C116.987 43.9467 117.158 45.4613 117.499 46.272C117.84 47.0827 118.63 47.4667 119.867 47.424C120.123 47.424 120.251 47.5307 120.251 47.744C120.251 47.9147 120.123 48 119.867 48C119.782 48 119.547 48 119.163 48C118.779 48 117.968 47.9787 116.731 47.936C114.768 47.936 113.403 47.936 112.635 47.936C111.91 47.8933 111.44 47.872 111.227 47.872C111.099 47.872 110.907 47.872 110.651 47.872C110.395 47.872 109.947 47.8933 109.307 47.936C108.326 47.9787 107.579 48 107.067 48C106.598 48 106.171 48 105.787 48C105.531 48 105.403 47.9147 105.403 47.744C105.403 47.5307 105.531 47.424 105.787 47.424C107.28 47.424 108.198 47.04 108.539 46.272C108.923 45.4613 109.115 43.8187 109.115 41.344L109.051 28.032C109.008 24.8747 108.454 22.5067 107.387 20.928C106.363 19.3067 104.827 18.496 102.779 18.496C101.328 18.496 100.006 18.8587 98.811 19.584C97.659 20.3093 96.443 21.5253 95.163 23.232V47.424H98.491C98.747 47.424 98.875 47.5307 98.875 47.744C98.875 47.9147 98.747 48 98.491 48C98.4057 48 98.171 48 97.787 48C97.4457 48 96.699 47.9787 95.547 47.936C93.7123 47.936 92.4323 47.936 91.707 47.936C91.0243 47.8933 90.5763 47.872 90.363 47.872C90.235 47.872 90.0217 47.872 89.723 47.872C89.4243 47.872 88.891 47.8933 88.123 47.936ZM133.794 5.376C133.794 6.784 133.282 8 132.258 9.024C131.234 10.048 129.997 10.56 128.546 10.56C127.138 10.56 125.922 10.048 124.898 9.024C123.874 8 123.362 6.784 123.362 5.376C123.362 3.92533 123.874 2.688 124.898 1.664C125.922 0.639998 127.138 0.127998 128.546 0.127998C129.997 0.127998 131.234 0.639998 132.258 1.664C133.282 2.688 133.794 3.92533 133.794 5.376ZM124.13 58.304C121.826 60.608 119.863 62.2507 118.242 63.232C116.621 64.256 115.127 64.768 113.762 64.768C112.909 64.768 112.269 64.5973 111.842 64.256C111.373 63.9147 111.138 63.424 111.138 62.784C111.138 61.6747 111.714 60.544 112.866 59.392C113.975 58.2827 115.127 57.728 116.322 57.728C116.749 57.728 117.197 57.7493 117.666 57.792C118.093 57.8347 118.711 57.92 119.522 58.048C120.503 58.176 121.207 58.24 121.634 58.24C122.061 58.24 122.423 58.1973 122.722 58.112C123.703 57.9413 124.343 57.088 124.642 55.552C124.983 54.016 125.154 51.52 125.154 48.064V24.512C125.154 22.4213 124.898 21.0773 124.386 20.48C123.874 19.84 122.679 19.7333 120.802 20.16C120.546 20.2027 120.397 20.1387 120.354 19.968C120.269 19.7973 120.354 19.6907 120.61 19.648C122.274 19.264 124.215 18.6667 126.434 17.856C128.653 17.0027 130.466 16.1707 131.874 15.36C132.002 15.2747 132.194 15.296 132.45 15.424C132.749 15.552 132.898 15.68 132.898 15.808C132.898 17.9413 132.898 20.4587 132.898 23.36C132.898 26.2613 132.919 30.4427 132.962 35.904C132.962 38.6347 132.962 40.4907 132.962 41.472C132.962 42.4107 132.962 43.1147 132.962 43.584C132.919 45.76 132.258 47.936 130.978 50.112C129.698 52.288 127.415 55.0187 124.13 58.304ZM161.899 41.024C159.979 43.5413 158.016 45.4613 156.011 46.784C154.048 48.064 152.107 48.704 150.187 48.704C146.859 48.704 144.448 47.7653 142.955 45.888C141.462 44.0107 140.715 41.024 140.715 36.928V24.64C140.715 23.5733 140.672 22.72 140.587 22.08C140.544 21.3973 140.438 20.8853 140.267 20.544C140.054 20.0747 139.734 19.776 139.307 19.648C138.88 19.52 137.984 19.584 136.619 19.84C136.363 19.8827 136.235 19.8187 136.235 19.648C136.235 19.4347 136.363 19.3067 136.619 19.264C138.24 18.9653 140.224 18.432 142.571 17.664C144.918 16.896 146.624 16.2133 147.691 15.616C147.819 15.5307 148.032 15.552 148.331 15.68C148.672 15.808 148.843 15.936 148.843 16.064V35.136C148.843 38.2933 149.334 40.6613 150.315 42.24C151.296 43.776 152.811 44.544 154.859 44.544C156.139 44.544 157.334 44.224 158.443 43.584C159.552 42.9013 160.704 41.8133 161.899 40.32V24.64C161.899 23.5733 161.856 22.72 161.771 22.08C161.728 21.3973 161.622 20.8853 161.451 20.544C161.238 20.0747 160.918 19.776 160.491 19.648C160.064 19.52 159.168 19.584 157.803 19.84C157.547 19.8827 157.419 19.8187 157.419 19.648C157.419 19.4347 157.547 19.3067 157.803 19.264C159.382 18.9653 161.302 18.432 163.563 17.664C165.867 16.896 167.574 16.2133 168.683 15.616C168.811 15.5307 169.024 15.552 169.323 15.68C169.664 15.808 169.835 15.936 169.835 16.064V40.384C169.835 43.6267 169.984 45.6107 170.283 46.336C170.624 47.0613 171.52 47.424 172.971 47.424C173.142 47.424 173.227 47.5307 173.227 47.744C173.227 47.9147 173.142 48 172.971 48C170.795 48 168.747 48.0427 166.827 48.128C164.95 48.256 163.307 48.4053 161.899 48.576C161.728 48.6187 161.6 48.5973 161.515 48.512C161.43 48.4693 161.387 48.2987 161.387 48C161.387 47.9573 161.387 47.8933 161.387 47.808C161.387 47.7227 161.408 47.5307 161.451 47.232C161.622 45.9093 161.728 44.7573 161.771 43.776C161.856 42.7947 161.899 41.8773 161.899 41.024ZM199.597 61.76C197.506 63.2107 195.245 64.2987 192.813 65.024C190.381 65.792 187.928 66.176 185.453 66.176C181.912 66.2187 179.16 65.5787 177.197 64.256C175.277 62.9333 174.317 61.12 174.317 58.816C174.317 57.024 175.149 55.3173 176.813 53.696C178.52 52.0747 180.909 50.6667 183.981 49.472C181.25 49.344 179.181 48.8533 177.773 48C176.365 47.1467 175.661 45.952 175.661 44.416C175.661 42.9227 176.386 41.5573 177.837 40.32C179.288 39.0827 181.293 38.08 183.853 37.312C181.378 36.6293 179.48 35.4347 178.157 33.728C176.877 32.0213 176.237 29.8667 176.237 27.264C176.237 24.0213 177.581 21.3333 180.269 19.2C182.957 17.024 186.413 15.8507 190.637 15.68C192.088 15.6373 193.752 15.488 195.629 15.232C197.549 14.9333 200.173 14.4427 203.501 13.76C204.824 13.504 205.72 13.3333 206.189 13.248C206.658 13.1627 207 13.12 207.213 13.12C207.768 13.0347 208.28 13.12 208.749 13.376C209.261 13.5893 209.517 13.9093 209.517 14.336C209.517 15.0613 209.154 15.7653 208.429 16.448C207.704 17.1307 206.893 17.472 205.997 17.472C205.784 17.472 205.442 17.4507 204.973 17.408C204.504 17.3227 203.586 17.1947 202.221 17.024C199.49 16.64 197.421 16.384 196.013 16.256C194.605 16.0853 193.41 16 192.429 16V16.128C196.141 16.6827 199 17.8987 201.005 19.776C203.01 21.6107 204.013 23.9573 204.013 26.816C204.013 30.1867 202.669 32.896 199.981 34.944C197.293 36.992 193.773 38.016 189.421 38.016C188.61 38.016 187.778 37.9733 186.925 37.888C186.114 37.8027 185.346 37.6747 184.621 37.504C183.085 37.888 181.954 38.336 181.229 38.848C180.546 39.3173 180.205 39.8933 180.205 40.576C180.205 41.3867 180.696 41.984 181.677 42.368C182.658 42.7093 184.365 42.88 186.797 42.88H196.781C200.408 42.88 203.096 43.4347 204.845 44.544C206.637 45.6533 207.533 47.3387 207.533 49.6C207.533 51.6907 206.829 53.824 205.421 56C204.013 58.176 202.072 60.096 199.597 61.76ZM184.493 26.56C184.493 30.016 184.984 32.704 185.965 34.624C186.946 36.544 188.333 37.504 190.125 37.504C192.045 37.504 193.474 36.608 194.413 34.816C195.394 33.024 195.885 30.3573 195.885 26.816C195.885 23.4027 195.394 20.8 194.413 19.008C193.474 17.1733 192.109 16.256 190.317 16.256C188.354 16.256 186.882 17.1093 185.901 18.816C184.962 20.48 184.493 23.0613 184.493 26.56ZM179.117 54.912C179.117 56.7893 180.098 58.2187 182.061 59.2C184.024 60.1813 186.904 60.672 190.701 60.672C195.01 60.672 198.573 59.9467 201.389 58.496C204.205 57.088 205.613 55.36 205.613 53.312C205.613 51.904 204.866 50.9013 203.373 50.304C201.922 49.7493 199.384 49.472 195.757 49.472H184.685C182.893 50.1973 181.506 51.008 180.525 51.904C179.586 52.8427 179.117 53.8453 179.117 54.912ZM229.461 39.04C228.266 41.6427 226.496 43.904 224.149 45.824C221.802 47.744 219.413 48.704 216.981 48.704C214.677 48.704 212.757 48.0213 211.221 46.656C209.728 45.2907 208.981 43.6053 208.981 41.6C208.981 39.2107 210.24 37.0347 212.757 35.072C215.274 33.1093 219.434 30.9973 225.237 28.736L229.845 26.944C229.802 22.8907 229.376 20.032 228.565 18.368C227.754 16.704 226.368 15.872 224.405 15.872C223.594 15.872 222.848 16.0427 222.165 16.384C221.482 16.7253 220.906 17.2373 220.437 17.92C220.138 18.3467 219.861 18.8587 219.605 19.456C219.349 20.0107 219.008 20.9067 218.581 22.144C218.325 22.8267 218.133 23.3387 218.005 23.68C217.92 23.9787 217.813 24.2347 217.685 24.448C217.344 25.216 216.832 25.7707 216.149 26.112C215.509 26.4533 214.57 26.624 213.333 26.624C212.181 26.624 211.264 26.4107 210.581 25.984C209.941 25.5147 209.621 24.9173 209.621 24.192C209.621 23.4667 209.856 22.7413 210.325 22.016C210.837 21.248 211.562 20.544 212.501 19.904C214.25 18.624 216.362 17.5573 218.837 16.704C221.312 15.808 223.53 15.36 225.493 15.36C229.589 15.36 232.64 16.32 234.645 18.24C236.693 20.16 237.717 23.0613 237.717 26.944C237.717 27.6693 237.696 28.544 237.653 29.568C237.653 30.5493 237.61 32.128 237.525 34.304C237.482 36.1813 237.44 37.5253 237.397 38.336C237.397 39.1467 237.397 39.8293 237.397 40.384C237.397 42.1333 237.504 43.3707 237.717 44.096C237.973 44.7787 238.378 45.12 238.933 45.12C239.445 45.12 240.021 44.736 240.661 43.968C241.301 43.1573 241.856 42.1973 242.325 41.088C242.453 40.832 242.666 40.768 242.965 40.896C243.264 41.024 243.306 41.2587 243.093 41.6C241.984 43.4347 240.533 45.0773 238.741 46.528C236.992 47.936 235.328 48.64 233.749 48.64C232.17 48.64 231.04 48.2133 230.357 47.36C229.674 46.5067 229.333 45.1413 229.333 43.264C229.333 42.624 229.333 41.8987 229.333 41.088C229.376 40.2773 229.418 39.5947 229.461 39.04ZM216.725 38.656C216.725 40.32 217.216 41.6853 218.197 42.752C219.221 43.776 220.544 44.3093 222.165 44.352C223.616 44.3947 225.002 43.776 226.325 42.496C227.69 41.1733 228.757 39.5947 229.525 37.76C229.61 34.7733 229.674 32.448 229.717 30.784C229.802 29.12 229.845 28.096 229.845 27.712V27.456L225.429 29.376C222.357 30.656 220.138 32.0213 218.773 33.472C217.408 34.9227 216.725 36.6507 216.725 38.656ZM263.899 38.848C261.979 42.048 259.973 44.48 257.883 46.144C255.835 47.808 253.808 48.64 251.803 48.64C249.627 48.64 248.048 47.8933 247.067 46.4C246.085 44.9067 245.595 42.4533 245.595 39.04V20.16H240.73C240.688 20.16 240.666 20.096 240.666 19.968C240.666 19.84 240.688 19.7547 240.73 19.712L252.891 9.472C253.061 9.30133 253.189 9.23733 253.275 9.28C253.403 9.28 253.467 9.38667 253.467 9.6V16H262.235C262.832 16 263.216 16 263.387 16C263.6 16 263.707 16.0213 263.707 16.064C263.707 16.192 263.408 16.8533 262.811 18.048C262.213 19.2 261.765 19.904 261.467 20.16H253.339V36.928C253.339 39.232 253.68 40.9813 254.363 42.176C255.088 43.3707 256.133 43.968 257.499 43.968C258.608 43.968 259.632 43.52 260.571 42.624C261.509 41.728 262.405 40.3413 263.259 38.464C263.387 38.2507 263.557 38.208 263.771 38.336C264.027 38.4213 264.069 38.592 263.899 38.848ZM289.028 45.568C287.406 46.6347 285.785 47.424 284.164 47.936C282.585 48.4053 280.857 48.64 278.98 48.64C274.116 48.64 270.212 47.2533 267.268 44.48C264.366 41.664 262.916 37.9307 262.916 33.28C262.916 28.5867 264.836 24.4267 268.676 20.8C272.558 17.1733 277.017 15.36 282.052 15.36C285.721 15.36 288.58 16.1067 290.628 17.6C292.676 19.0933 293.657 21.0133 293.572 23.36C293.486 24.384 293.102 25.0667 292.42 25.408C291.737 25.7067 290.5 25.856 288.708 25.856H270.404C270.318 26.3253 270.254 26.816 270.212 27.328C270.212 27.84 270.212 28.3733 270.212 28.928C270.212 33.024 271.534 36.3307 274.18 38.848C276.825 41.3227 280.281 42.56 284.548 42.56C288.132 42.56 291.204 41.3867 293.764 39.04C296.366 36.6933 298.372 33.2587 299.78 28.736C299.865 28.48 299.972 28.3733 300.1 28.416C300.228 28.416 300.249 28.5653 300.164 28.864C299.14 32.3627 297.625 35.6267 295.62 38.656C293.614 41.6427 291.417 43.9467 289.028 45.568ZM285.444 21.888C285.444 20.3093 284.91 19.008 283.844 17.984C282.777 16.96 281.348 16.448 279.556 16.448C277.166 16.448 275.161 17.2587 273.54 18.88C271.961 20.4587 270.937 22.656 270.468 25.472C272.388 25.4293 274.244 25.3867 276.036 25.344C277.828 25.3013 279.812 25.2373 281.988 25.152C282.542 25.1093 283.054 25.024 283.524 24.896C283.993 24.7253 284.334 24.5547 284.548 24.384C284.846 24.128 285.06 23.808 285.188 23.424C285.358 22.9973 285.444 22.4853 285.444 21.888Z" fill="white"/>
</svg>
